<mxfile host="app.diagrams.net" agent="Mozilla/5.0 (Windows NT 10.0; Win64; x64) AppleWebKit/537.36 (KHTML, like Gecko) Chrome/140.0.0.0 Safari/537.36" version="28.2.5">
  <diagram name="Page-1" id="tJy8O6oTvKqeBBHxnaru">
    <mxGraphModel dx="1833" dy="1012" grid="1" gridSize="10" guides="1" tooltips="1" connect="1" arrows="1" fold="1" page="1" pageScale="1" pageWidth="850" pageHeight="1100" math="0" shadow="0">
      <root>
        <mxCell id="0" />
        <mxCell id="1" parent="0" />
        <mxCell id="5VinsiJ6YzJo_JCMXYEi-1" value="" style="ellipse;shape=cloud;whiteSpace=wrap;html=1;fillColor=#b1ddf0;strokeColor=#10739e;" parent="1" vertex="1">
          <mxGeometry x="20" y="160" width="220" height="160" as="geometry" />
        </mxCell>
        <mxCell id="5VinsiJ6YzJo_JCMXYEi-2" value="&lt;b&gt;Google Cloud&lt;/b&gt;" style="text;html=1;align=center;verticalAlign=middle;whiteSpace=wrap;rounded=0;fontFamily=Helvetica;fontSize=12;fontColor=light-dark(#000000,#000000);" parent="1" vertex="1">
          <mxGeometry x="80" y="180" width="60" height="30" as="geometry" />
        </mxCell>
        <mxCell id="5VinsiJ6YzJo_JCMXYEi-3" value="&lt;b&gt;AWS&lt;/b&gt;" style="text;html=1;align=center;verticalAlign=middle;whiteSpace=wrap;rounded=0;fontFamily=Helvetica;fontSize=12;fontColor=light-dark(#000000,#000000);" parent="1" vertex="1">
          <mxGeometry x="50" y="210" width="60" height="30" as="geometry" />
        </mxCell>
        <mxCell id="5VinsiJ6YzJo_JCMXYEi-4" value="&lt;b&gt;NetFlix&lt;/b&gt;" style="text;html=1;align=center;verticalAlign=middle;whiteSpace=wrap;rounded=0;fontFamily=Helvetica;fontSize=12;fontColor=light-dark(#000000,#000000);" parent="1" vertex="1">
          <mxGeometry x="150" y="200" width="60" height="30" as="geometry" />
        </mxCell>
        <mxCell id="5VinsiJ6YzJo_JCMXYEi-5" value="&lt;b&gt;Twitter&lt;/b&gt;" style="text;html=1;align=center;verticalAlign=middle;whiteSpace=wrap;rounded=0;fontFamily=Helvetica;fontSize=12;fontColor=light-dark(#000000,#000000);" parent="1" vertex="1">
          <mxGeometry x="160" y="230" width="60" height="30" as="geometry" />
        </mxCell>
        <mxCell id="5VinsiJ6YzJo_JCMXYEi-6" value="&lt;b&gt;IBM&lt;/b&gt;" style="text;html=1;align=center;verticalAlign=middle;whiteSpace=wrap;rounded=0;fontFamily=Helvetica;fontSize=12;fontColor=light-dark(#000000,#000000);" parent="1" vertex="1">
          <mxGeometry x="100" y="210" width="60" height="30" as="geometry" />
        </mxCell>
        <mxCell id="5VinsiJ6YzJo_JCMXYEi-7" value="Chase Bank" style="text;html=1;align=center;verticalAlign=middle;whiteSpace=wrap;rounded=0;fontFamily=Helvetica;fontSize=12;fontColor=light-dark(#000000,#000000);fontStyle=1" parent="1" vertex="1">
          <mxGeometry x="40" y="250" width="60" height="30" as="geometry" />
        </mxCell>
        <mxCell id="5VinsiJ6YzJo_JCMXYEi-8" value="&lt;b&gt;Walmart&lt;/b&gt;" style="text;html=1;align=center;verticalAlign=middle;whiteSpace=wrap;rounded=0;fontFamily=Helvetica;fontSize=12;fontColor=light-dark(#000000,#000000);" parent="1" vertex="1">
          <mxGeometry x="90" y="230" width="60" height="30" as="geometry" />
        </mxCell>
        <mxCell id="5VinsiJ6YzJo_JCMXYEi-9" value="&lt;b&gt;Uber&lt;/b&gt;" style="text;html=1;align=center;verticalAlign=middle;whiteSpace=wrap;rounded=0;fontFamily=Helvetica;fontSize=12;fontColor=light-dark(#000000,#000000);" parent="1" vertex="1">
          <mxGeometry x="140" y="260" width="60" height="30" as="geometry" />
        </mxCell>
        <mxCell id="5VinsiJ6YzJo_JCMXYEi-10" value="&lt;b&gt;LinkedIn&lt;/b&gt;" style="text;html=1;align=center;verticalAlign=middle;whiteSpace=wrap;rounded=0;fillColor=none;fontColor=light-dark(#000000,#000000);" parent="1" vertex="1">
          <mxGeometry x="90" y="260" width="60" height="30" as="geometry" />
        </mxCell>
        <mxCell id="5VinsiJ6YzJo_JCMXYEi-12" value="" style="rounded=1;whiteSpace=wrap;html=1;fillColor=#bac8d3;strokeColor=#23445d;" parent="1" vertex="1">
          <mxGeometry x="80" y="380" width="120" height="60" as="geometry" />
        </mxCell>
        <mxCell id="5VinsiJ6YzJo_JCMXYEi-13" value="&lt;b&gt;Hadoop&amp;nbsp; Cluster&lt;/b&gt;" style="text;html=1;align=center;verticalAlign=middle;whiteSpace=wrap;rounded=0;" parent="1" vertex="1">
          <mxGeometry x="110" y="395" width="60" height="30" as="geometry" />
        </mxCell>
        <mxCell id="5VinsiJ6YzJo_JCMXYEi-15" value="" style="curved=1;endArrow=classic;html=1;rounded=0;exitX=0.461;exitY=0.945;exitDx=0;exitDy=0;exitPerimeter=0;entryX=0.5;entryY=0;entryDx=0;entryDy=0;strokeColor=light-dark(#000000,#00CC66);" parent="1" source="5VinsiJ6YzJo_JCMXYEi-1" target="5VinsiJ6YzJo_JCMXYEi-12" edge="1">
          <mxGeometry width="50" height="50" relative="1" as="geometry">
            <mxPoint x="230" y="440" as="sourcePoint" />
            <mxPoint x="280" y="390" as="targetPoint" />
            <Array as="points">
              <mxPoint x="140" y="340" />
            </Array>
          </mxGeometry>
        </mxCell>
        <mxCell id="5VinsiJ6YzJo_JCMXYEi-16" value="" style="curved=1;endArrow=classic;html=1;rounded=0;entryX=0.767;entryY=0.872;entryDx=0;entryDy=0;entryPerimeter=0;" parent="1" target="5VinsiJ6YzJo_JCMXYEi-1" edge="1">
          <mxGeometry width="50" height="50" relative="1" as="geometry">
            <mxPoint x="200" y="400" as="sourcePoint" />
            <mxPoint x="250" y="350" as="targetPoint" />
            <Array as="points">
              <mxPoint x="270" y="410" />
            </Array>
          </mxGeometry>
        </mxCell>
        <mxCell id="5VinsiJ6YzJo_JCMXYEi-17" value="&lt;font style=&quot;font-size: 11px;&quot;&gt;Some batch request&amp;nbsp;&lt;/font&gt;" style="text;html=1;align=center;verticalAlign=middle;whiteSpace=wrap;rounded=0;fontStyle=1" parent="1" vertex="1">
          <mxGeometry x="80" y="330" width="60" height="30" as="geometry" />
        </mxCell>
        <mxCell id="5VinsiJ6YzJo_JCMXYEi-18" value="&lt;font style=&quot;font-size: 9px;&quot;&gt;&lt;b style=&quot;&quot;&gt;Works it&#39;s magic&lt;/b&gt;&lt;/font&gt;" style="text;html=1;align=center;verticalAlign=middle;whiteSpace=wrap;rounded=0;" parent="1" vertex="1">
          <mxGeometry x="110" y="440" width="60" height="30" as="geometry" />
        </mxCell>
        <mxCell id="5VinsiJ6YzJo_JCMXYEi-19" value="&lt;b style=&quot;&quot;&gt;&lt;font style=&quot;font-size: 11px;&quot;&gt;Spits out the result, table, etc&lt;/font&gt;&lt;/b&gt;" style="text;html=1;align=center;verticalAlign=middle;whiteSpace=wrap;rounded=0;" parent="1" vertex="1">
          <mxGeometry x="210" y="310" width="60" height="30" as="geometry" />
        </mxCell>
        <mxCell id="5VinsiJ6YzJo_JCMXYEi-20" value="" style="line;strokeWidth=2;direction=south;html=1;" parent="1" vertex="1">
          <mxGeometry x="280" y="140" width="10" height="330" as="geometry" />
        </mxCell>
        <mxCell id="2m23eCFSQtleEWL6Jh_S-1" value="&lt;font style=&quot;font-size: 14px;&quot;&gt;In it&#39;s most simple of Diagrams&lt;/font&gt;" style="text;html=1;align=center;verticalAlign=middle;whiteSpace=wrap;rounded=0;" vertex="1" parent="1">
          <mxGeometry x="300" y="150" width="175" height="30" as="geometry" />
        </mxCell>
        <mxCell id="2m23eCFSQtleEWL6Jh_S-2" value="&lt;font style=&quot;font-size: 15px;&quot;&gt;Hadoop Common&lt;/font&gt;&lt;div&gt;&lt;br&gt;&lt;/div&gt;&lt;div&gt;&lt;font style=&quot;font-size: 11px;&quot;&gt;Utilities, Java Libraries, API&lt;/font&gt;&lt;/div&gt;" style="html=1;dropTarget=0;whiteSpace=wrap;rounded=1;fillColor=#6a00ff;fontColor=#ffffff;strokeColor=#3700CC;" vertex="1" parent="1">
          <mxGeometry x="510" y="190" width="180" height="90" as="geometry" />
        </mxCell>
        <mxCell id="2m23eCFSQtleEWL6Jh_S-3" value="" style="shape=module;jettyWidth=8;jettyHeight=4;" vertex="1" parent="2m23eCFSQtleEWL6Jh_S-2">
          <mxGeometry x="1" width="20" height="20" relative="1" as="geometry">
            <mxPoint x="-27" y="7" as="offset" />
          </mxGeometry>
        </mxCell>
        <mxCell id="2m23eCFSQtleEWL6Jh_S-4" value="&lt;font style=&quot;font-size: 15px;&quot;&gt;HDFS&lt;/font&gt;&lt;div&gt;Block Storage&lt;/div&gt;&lt;div&gt;NameNode, DataNodes&lt;/div&gt;" style="html=1;dropTarget=0;whiteSpace=wrap;rounded=1;fillColor=#60a917;fontColor=#ffffff;strokeColor=#2D7600;" vertex="1" parent="1">
          <mxGeometry x="290" y="265" width="180" height="90" as="geometry" />
        </mxCell>
        <mxCell id="2m23eCFSQtleEWL6Jh_S-5" value="" style="shape=module;jettyWidth=8;jettyHeight=4;" vertex="1" parent="2m23eCFSQtleEWL6Jh_S-4">
          <mxGeometry x="1" width="20" height="20" relative="1" as="geometry">
            <mxPoint x="-27" y="7" as="offset" />
          </mxGeometry>
        </mxCell>
        <mxCell id="2m23eCFSQtleEWL6Jh_S-6" value="&lt;span style=&quot;font-size: 15px;&quot;&gt;YARN&lt;/span&gt;&lt;br&gt;&lt;div&gt;Resource Manager&lt;/div&gt;&lt;div&gt;Scheduling, job containers&lt;/div&gt;" style="html=1;dropTarget=0;whiteSpace=wrap;rounded=1;fillColor=#e51400;fontColor=#ffffff;strokeColor=#B20000;" vertex="1" parent="1">
          <mxGeometry x="510" y="340" width="180" height="90" as="geometry" />
        </mxCell>
        <mxCell id="2m23eCFSQtleEWL6Jh_S-7" value="" style="shape=module;jettyWidth=8;jettyHeight=4;" vertex="1" parent="2m23eCFSQtleEWL6Jh_S-6">
          <mxGeometry x="1" width="20" height="20" relative="1" as="geometry">
            <mxPoint x="-27" y="7" as="offset" />
          </mxGeometry>
        </mxCell>
        <mxCell id="2m23eCFSQtleEWL6Jh_S-8" value="&lt;span style=&quot;font-size: 15px;&quot;&gt;MapReduce&lt;/span&gt;&lt;div&gt;&lt;span style=&quot;font-size: 13px;&quot;&gt;Map and Reduce job&lt;/span&gt;&lt;/div&gt;&lt;div&gt;&lt;span style=&quot;font-size: 13px;&quot;&gt;Parallelism&lt;/span&gt;&lt;/div&gt;" style="html=1;dropTarget=0;whiteSpace=wrap;rounded=1;fillColor=#1ba1e2;fontColor=#ffffff;strokeColor=#006EAF;" vertex="1" parent="1">
          <mxGeometry x="730" y="265" width="180" height="90" as="geometry" />
        </mxCell>
        <mxCell id="2m23eCFSQtleEWL6Jh_S-9" value="" style="shape=module;jettyWidth=8;jettyHeight=4;" vertex="1" parent="2m23eCFSQtleEWL6Jh_S-8">
          <mxGeometry x="1" width="20" height="20" relative="1" as="geometry">
            <mxPoint x="-27" y="7" as="offset" />
          </mxGeometry>
        </mxCell>
        <mxCell id="2m23eCFSQtleEWL6Jh_S-13" value="" style="endArrow=none;dashed=1;html=1;rounded=0;exitX=0.5;exitY=0;exitDx=0;exitDy=0;entryX=0.5;entryY=1;entryDx=0;entryDy=0;" edge="1" parent="1" source="2m23eCFSQtleEWL6Jh_S-6" target="2m23eCFSQtleEWL6Jh_S-2">
          <mxGeometry width="50" height="50" relative="1" as="geometry">
            <mxPoint x="570" y="360" as="sourcePoint" />
            <mxPoint x="680" y="300" as="targetPoint" />
          </mxGeometry>
        </mxCell>
        <mxCell id="2m23eCFSQtleEWL6Jh_S-14" value="" style="endArrow=none;dashed=1;html=1;rounded=0;entryX=0;entryY=0.5;entryDx=0;entryDy=0;" edge="1" parent="1" target="2m23eCFSQtleEWL6Jh_S-8">
          <mxGeometry width="50" height="50" relative="1" as="geometry">
            <mxPoint x="470" y="310" as="sourcePoint" />
            <mxPoint x="720" y="310" as="targetPoint" />
          </mxGeometry>
        </mxCell>
        <mxCell id="2m23eCFSQtleEWL6Jh_S-17" value="" style="line;strokeWidth=2;html=1;" vertex="1" parent="1">
          <mxGeometry x="20" y="470" width="950" height="10" as="geometry" />
        </mxCell>
        <mxCell id="2m23eCFSQtleEWL6Jh_S-18" value="" style="ellipse;whiteSpace=wrap;html=1;aspect=fixed;fillColor=#60a917;fontColor=#ffffff;strokeColor=#2D7600;" vertex="1" parent="1">
          <mxGeometry x="20" y="500" width="30" height="30" as="geometry" />
        </mxCell>
        <mxCell id="2m23eCFSQtleEWL6Jh_S-19" value="&lt;font style=&quot;font-size: 13px;&quot;&gt;Stores data in blocks, replicated among other DataNodes&lt;/font&gt;" style="text;html=1;align=center;verticalAlign=middle;whiteSpace=wrap;rounded=0;" vertex="1" parent="1">
          <mxGeometry x="40" y="500" width="210" height="30" as="geometry" />
        </mxCell>
        <mxCell id="2m23eCFSQtleEWL6Jh_S-20" value="" style="ellipse;whiteSpace=wrap;html=1;aspect=fixed;fillColor=#6a00ff;fontColor=#ffffff;strokeColor=#3700CC;" vertex="1" parent="1">
          <mxGeometry x="250" y="500" width="30" height="30" as="geometry" />
        </mxCell>
        <mxCell id="2m23eCFSQtleEWL6Jh_S-21" value="&lt;span style=&quot;font-size: 13px;&quot;&gt;Supports all functions within the system&lt;/span&gt;" style="text;html=1;align=center;verticalAlign=middle;whiteSpace=wrap;rounded=0;" vertex="1" parent="1">
          <mxGeometry x="270" y="500" width="210" height="30" as="geometry" />
        </mxCell>
        <mxCell id="2m23eCFSQtleEWL6Jh_S-22" value="" style="ellipse;whiteSpace=wrap;html=1;aspect=fixed;fillColor=#1ba1e2;fontColor=#ffffff;strokeColor=#006EAF;" vertex="1" parent="1">
          <mxGeometry x="475" y="500" width="30" height="30" as="geometry" />
        </mxCell>
        <mxCell id="2m23eCFSQtleEWL6Jh_S-23" value="&lt;span style=&quot;font-size: 13px;&quot;&gt;Executes tasks(batch jobs). Utilizes parallelism to execute jobs between multiple nodes&lt;/span&gt;" style="text;html=1;align=center;verticalAlign=middle;whiteSpace=wrap;rounded=0;" vertex="1" parent="1">
          <mxGeometry x="510" y="510" width="210" height="30" as="geometry" />
        </mxCell>
        <mxCell id="2m23eCFSQtleEWL6Jh_S-24" value="" style="ellipse;whiteSpace=wrap;html=1;aspect=fixed;fillColor=#e51400;fontColor=#ffffff;strokeColor=#B20000;" vertex="1" parent="1">
          <mxGeometry x="720" y="500" width="30" height="30" as="geometry" />
        </mxCell>
        <mxCell id="2m23eCFSQtleEWL6Jh_S-25" value="&lt;span style=&quot;font-size: 13px;&quot;&gt;Allocates resources for submitted jobs, ensures conatiners are used within the most ideal WorkerNodes in relation to data stored within HDFS.&amp;nbsp;&lt;/span&gt;" style="text;html=1;align=center;verticalAlign=middle;whiteSpace=wrap;rounded=0;" vertex="1" parent="1">
          <mxGeometry x="750" y="520" width="210" height="30" as="geometry" />
        </mxCell>
      </root>
    </mxGraphModel>
  </diagram>
</mxfile>
